HIERARCHY
ROOT SimulationBone
{
	OFFSET 0.000000 0.000000 0.000000
	CHANNELS 6 Xposition Yposition Zposition Zrotation Yrotation Xrotation 
	JOINT Hips
	{
		OFFSET 0.000000 0.000000 0.000000
		CHANNELS 6 Xposition Yposition Zposition Zrotation Yrotation Xrotation 
		JOINT LeftUpLeg
		{
			OFFSET 0.103459 1.857842 10.548500
			CHANNELS 3 Zrotation Yrotation Xrotation
			JOINT LeftLeg
			{
				OFFSET 43.500008 -0.000042 -0.000011
				CHANNELS 3 Zrotation Yrotation Xrotation
				JOINT LeftFoot
				{
					OFFSET 42.372200 0.000000 0.000010
					CHANNELS 3 Zrotation Yrotation Xrotation
					JOINT LeftToe
					{
						OFFSET 17.300018 0.000008 -0.000006
						CHANNELS 3 Zrotation Yrotation Xrotation
						End Site
						{
							OFFSET 0.000000 0.000000 0.000000
						}
					}
				}
			}
		}
		JOINT RightUpLeg
		{
			OFFSET 0.103459 1.857820 -10.548510
			CHANNELS 3 Zrotation Yrotation Xrotation
			JOINT RightLeg
			{
				OFFSET 43.500038 -0.000004 -0.000004
				CHANNELS 3 Zrotation Yrotation Xrotation
				JOINT RightFoot
				{
					OFFSET 42.372261 -0.000019 0.000015
					CHANNELS 3 Zrotation Yrotation Xrotation
					JOINT RightToe
					{
						OFFSET 17.300003 -0.000001 0.000006
						CHANNELS 3 Zrotation Yrotation Xrotation
						End Site
						{
							OFFSET 0.000000 0.000000 0.000000
						}
					}
				}
			}
		}
		JOINT Spine
		{
			OFFSET 6.901967 -2.603730 -0.000004
			CHANNELS 3 Zrotation Yrotation Xrotation
			JOINT Spine1
			{
				OFFSET 12.588097 -0.000009 0.000008
				CHANNELS 3 Zrotation Yrotation Xrotation
				JOINT Spine2
				{
					OFFSET 12.343205 0.000003 -0.000002
					CHANNELS 3 Zrotation Yrotation Xrotation
					JOINT Neck
					{
						OFFSET 25.832899 -0.000006 0.000003
						CHANNELS 3 Zrotation Yrotation Xrotation
						JOINT Head
						{
							OFFSET 11.766611 0.000013 0.000001
							CHANNELS 3 Zrotation Yrotation Xrotation
							End Site
							{
								OFFSET 0.000000 0.000000 0.000000
							}
						}
					}
					JOINT LeftShoulder
					{
						OFFSET 19.745903 -1.480350 6.000102
						CHANNELS 3 Zrotation Yrotation Xrotation
						JOINT LeftArm
						{
							OFFSET 11.284125 -0.000002 -0.000024
							CHANNELS 3 Zrotation Yrotation Xrotation
							JOINT LeftForeArm
							{
								OFFSET 33.000050 0.000009 0.000033
								CHANNELS 3 Zrotation Yrotation Xrotation
								JOINT LeftHand
								{
									OFFSET 25.200012 0.000010 -0.000003
									CHANNELS 3 Zrotation Yrotation Xrotation
									End Site
									{
										OFFSET 0.000000 0.000000 0.000000
									}
								}
							}
						}
					}
					JOINT RightShoulder
					{
						OFFSET 19.746105 -1.480362 -6.000072
						CHANNELS 3 Zrotation Yrotation Xrotation
						JOINT RightArm
						{
							OFFSET 11.284140 -0.000003 -0.000004
							CHANNELS 3 Zrotation Yrotation Xrotation
							JOINT RightForeArm
							{
								OFFSET 33.000099 0.000013 0.000007
								CHANNELS 3 Zrotation Yrotation Xrotation
								JOINT RightHand
								{
									OFFSET 25.199776 0.000126 0.000428
									CHANNELS 3 Zrotation Yrotation Xrotation
									End Site
									{
										OFFSET 0.000000 0.000000 0.000000
									}
								}
							}
						}
					}
				}
			}
		}
	}
}
MOTION
Frames: 5
Frame Time: 0.016667
-219.362056 0.000000 -439.596660 0.000000 -85.864898 0.000000 1.163403 89.668282 -0.044777 97.423632 0.656656 -179.607424 158.766518 -9.690995 174.088995 -55.533118 -4.455118 2.496937 63.756106 -5.299330 -8.820505 21.454548 0.003088 0.000001 -176.750433 3.257403 -175.110723 -19.862562 6.761988 9.629038 83.246707 -6.282471 2.281783 21.454558 -0.003112 -0.000019 8.851754 0.636477 0.808552 7.699926 1.217785 1.657682 7.381880 1.227906 1.650300 3.937397 -1.342542 2.085768 -14.861476 2.744744 1.021898 -155.352418 -75.568444 -26.689037 -9.382610 37.799243 9.371706 -55.123693 -19.429127 2.221870 6.655958 5.638831 45.602754 -158.206071 75.161652 23.737639 -5.971753 -31.270128 -21.994393 -40.502450 18.242091 -1.710494 3.647929 3.311046 -23.624055 
-219.393520 0.000000 -439.618499 0.000000 -85.541647 0.000000 1.183280 89.658857 -0.181953 97.497398 0.460603 -179.361070 157.662207 -10.046337 173.894925 -56.945351 -4.432241 3.216055 62.833960 -6.072503 -9.175798 21.454542 0.003091 -0.000002 -176.531515 3.496825 -175.231164 -19.715295 6.892328 10.017155 83.263093 -6.509517 2.459889 21.454558 -0.003107 -0.000017 8.907153 0.616614 0.862705 7.810916 1.173631 1.765081 7.492914 1.184399 1.757960 4.325190 -1.440019 2.369763 -14.977723 2.606243 1.353331 -156.452865 -75.027778 -25.575261 -10.753334 39.611361 10.876337 -52.767222 -19.743990 2.160741 6.570190 6.427027 45.336798 -161.391485 74.467543 20.487657 -6.478060 -32.476407 -23.354242 -40.045906 18.062155 -1.684925 3.441192 3.989511 -24.777363 
-219.396020 0.000000 -439.606450 0.000000 -85.184393 0.000000 1.211231 89.664452 -0.312042 97.585820 0.239201 -179.273076 156.849639 -10.323305 173.873735 -57.775381 -4.593346 3.623010 63.343351 -6.228276 -8.952515 21.454545 0.003094 -0.000003 -176.309708 3.785717 -175.239418 -19.634342 6.945758 10.270816 83.298179 -6.643169 2.643345 21.454558 -0.003107 -0.000017 8.956434 0.585992 0.926652 7.909532 1.107322 1.891197 7.591565 1.118851 1.884479 4.752753 -1.528645 2.727006 -15.165146 2.393869 1.788238 -157.535921 -74.568894 -24.475761 -12.062742 41.566304 12.125838 -49.793547 -19.798294 2.063974 6.400169 6.452957 44.453022 -164.144881 73.918742 17.671893 -7.195111 -33.964327 -24.691799 -39.356311 18.064831 -1.668282 3.088381 4.595873 -25.389890 
-219.369411 0.000000 -439.561746 0.000000 -84.794060 0.000000 1.235113 89.687751 -0.432237 97.665198 -0.000964 -179.328319 156.314275 -10.548603 173.910929 -58.008165 -4.860266 3.596031 64.601876 -5.890438 -8.492983 21.454550 0.003095 -0.000002 -176.111032 4.105330 -175.173822 -19.599297 6.920452 10.423491 83.336532 -6.704877 2.840480 21.454558 -0.003109 -0.000018 8.995699 0.543082 0.996791 7.987867 1.016117 2.028683 7.669933 1.028477 2.022521 5.197793 -1.585184 3.163271 -15.407369 2.144241 2.323867 -158.586396 -74.183462 -23.406715 -13.200213 43.628466 13.092458 -46.485886 -19.632514 1.947079 6.191438 6.028282 43.080570 -166.538164 73.461574 15.220125 -8.054595 -35.621783 -25.889257 -38.660639 18.140108 -1.655772 2.692567 5.111945 -25.720822 
-219.313549 0.000000 -439.485622 0.000000 -84.371556 0.000000 1.242672 89.731438 -0.540070 97.711815 -0.253737 -179.511529 156.042556 -10.752396 173.893379 -57.624645 -5.143668 3.008077 65.929930 -5.177626 -8.124913 21.454555 0.003093 0.000000 -175.961833 4.437296 -175.073171 -19.589314 6.814117 10.508897 83.362594 -6.715999 3.059681 21.454558 -0.003111 -0.000018 9.021049 0.486374 1.069529 8.038009 0.897345 2.170233 7.720115 0.910563 2.164790 5.638465 -1.586252 3.684768 -15.687602 1.893946 2.957219 -159.587697 -73.863677 -22.385701 -14.051346 45.759814 13.757258 -43.127675 -19.288335 1.824397 5.988317 5.465853 41.346829 -168.585829 73.041294 13.119528 -9.000005 -37.330377 -26.826178 -38.186842 18.178029 -1.645272 2.351001 5.518865 -26.027359 
